<svg xmlns="http://www.w3.org/2000/svg" viewBox="0 0 32 32">
  <!-- Sole -->
  <path d="M3 22 C3 22 4 26 8 26 L26 26 C28 26 29 25 29 23 L29 21 C29 20 28 19 27 19 L24 19 C23 19 22 18.5 22 18 L21 17 C20.5 16.5 19.5 16 19 16 L16 16 L14 14 C13 13 11 12 9 12 L6 12 C4.5 12 3 13.5 3 15 Z" fill="#0073EA" stroke="#034a94" stroke-width="0.5"/>
  <!-- Shoe upper -->
  <path d="M3 15 C3 13.5 4.5 12 6 12 L9 12 C11 12 13 13 14 14 L16 16 L19 16 C19.5 16 20 16.2 20.5 16.5" fill="none" stroke="#034a94" stroke-width="0.8"/>
  <!-- Laces -->
  <line x1="8" y1="13" x2="10" y2="15" stroke="white" stroke-width="0.8" stroke-linecap="round"/>
  <line x1="10" y1="13" x2="12" y2="15" stroke="white" stroke-width="0.8" stroke-linecap="round"/>
  <line x1="12" y1="13.5" x2="14" y2="15.5" stroke="white" stroke-width="0.8" stroke-linecap="round"/>
  <!-- Sole tread marks -->
  <line x1="8" y1="25" x2="8" y2="26" stroke="#034a94" stroke-width="0.6"/>
  <line x1="11" y1="25" x2="11" y2="26" stroke="#034a94" stroke-width="0.6"/>
  <line x1="14" y1="25" x2="14" y2="26" stroke="#034a94" stroke-width="0.6"/>
  <line x1="17" y1="25" x2="17" y2="26" stroke="#034a94" stroke-width="0.6"/>
  <line x1="20" y1="25" x2="20" y2="26" stroke="#034a94" stroke-width="0.6"/>
  <line x1="23" y1="25" x2="23" y2="26" stroke="#034a94" stroke-width="0.6"/>
  <!-- Heel tab -->
  <rect x="3" y="11" width="4" height="3" rx="1" fill="#FFD700" stroke="#034a94" stroke-width="0.5"/>
  <!-- Nike-style swoosh accent -->
  <path d="M6 20 Q12 22 20 18" fill="none" stroke="#FFD700" stroke-width="1.2" stroke-linecap="round"/>
</svg>
